Coordinates
version=1
nRows=6
nColumns=36
inDegrees=yes

Units are S.I. units (second, meters, Newtons, ...)
If the header above contains a line with 'inDegrees', this indicates whether rotational values are in degrees (yes) or radians (no).

endheader
time	pelvis_tilt	pelvis_list	pelvis_rotation	pelvis_tx	pelvis_ty	pelvis_tz	hip_flexion_r	hip_adduction_r	hip_rotation_r	knee_angle_r	knee_angle_r_beta	ankle_angle_r	subtalar_angle_r	mtp_angle_r	hip_flexion_l	hip_adduction_l	hip_rotation_l	knee_angle_l	knee_angle_l_beta	ankle_angle_l	subtalar_angle_l	mtp_angle_l	lumbar_extension	lumbar_bending	lumbar_rotation	arm_flex_r	arm_add_r	arm_rot_r	elbow_flex_r	pro_sup_r	arm_flex_l	arm_add_l	arm_rot_l	elbow_flex_l	pro_sup_l
      2.31666670	    -12.58997893	     -2.08971904	      6.91445868	      0.52196973	      1.18617771	      0.30354269	     29.00096795	     -2.73833016	     -4.27136257	     12.63335140	      0.22049358	     -6.29064016	      3.32021413	     -7.49999987	     29.30057676	      0.53656748	      4.66691540	     31.21446579	      0.54479520	      1.65390573	     -8.63199954	     -7.49999987	     -7.25111413	     -4.17411009	     -7.17151476	    -26.48615320	    -34.58725830	   -249.16049636	     34.25090238	     46.78538465	    -38.57104797	    -37.67285433	     14.19624451	     38.24368931	     99.86359158
      2.33333330	    -12.04243979	     -2.44551200	      6.73348215	      0.53402902	      1.15407828	      0.30458545	     28.28302467	     -2.38346680	     -4.78638107	     11.57720444	      0.20206034	     -8.44342663	      3.94129047	     -7.49999987	     29.64056614	     -0.21759254	      5.32735443	     27.68307330	      0.48316078	     -2.37995800	     -9.47630513	     -7.49999987	     -7.21227733	     -4.01749790	     -6.52260064	    -30.49361219	    -36.57469841	   -256.12383391	     38.71981062	     46.50926080	    -43.30716526	    -37.70788306	     12.85578377	     40.74835118	     99.37108399
      2.35000000	    -11.58906880	     -2.71775148	      6.65742422	      0.54000237	      1.11442026	      0.30835380	     28.02144043	     -2.22630457	     -5.33265757	     10.82239332	      0.18888640	    -10.43193499	      4.56610014	     -7.49999987	     30.58686146	     -1.01497370	      5.71799809	     25.20084873	      0.43983778	     -6.12639444	    -10.05048298	     -7.49999987	     -8.17200581	     -3.53874075	     -4.72914602	    -36.10371097	    -36.82712844	   -266.41370344	     40.30870060	     47.21621703	    -44.90451077	    -39.99723683	     14.92991720	     45.61965874	     97.92767185
      2.36666670	    -11.21181695	     -3.05545442	      6.31600160	      0.55169979	      1.08430304	      0.31050192	     28.78158574	     -2.12514582	     -5.51706836	     11.50944243	      0.20087767	    -11.52528481	      4.76865316	     -7.49999987	     31.83959530	     -1.94797794	      5.70817348	     23.70104117	      0.41366120	     -9.40769246	     -9.91504902	     -7.49999987	    -10.09691450	     -3.10526180	     -4.59702694	    -38.65595910	    -37.64065091	   -272.11686687	     40.84467335	     46.08239599	    -48.23312101	    -39.88271351	     12.11491624	     50.36033635	     94.85634588
      2.38333330	    -11.04772495	     -3.77099648	      5.79074645	      0.57576416	      1.03890966	      0.31770460	     29.61522953	     -1.23766977	     -4.97800006	     13.28375929	      0.23184534	    -10.11735227	      4.45492433	     -7.49999987	     33.26930285	     -3.33639125	      6.50484765	     24.24664976	      0.42318387	     -9.63291066	    -10.55258575	     -7.49999987	    -11.54536618	     -2.23885248	     -4.71274008	    -41.11163154	    -38.50882425	   -278.53240269	     40.80216456	     45.76508616	    -51.79241291	    -39.06033452	      8.55290232	     56.74570862	     91.37947456
      2.40000000	    -11.11685984	     -4.65059239	      5.03729929	      0.58725068	      1.00028178	      0.31903357	     32.06999147	      0.01824080	     -3.37204836	     18.69558101	      0.32629944	     -5.87828846	      2.78112577	     -7.49999987	     35.80760534	     -4.76491459	      7.43355055	     28.27768591	      0.49353872	     -5.56236987	    -11.04193507	     -7.49999987	    -12.56089852	     -0.51285969	     -1.18076261	    -49.52439990	    -34.77208494	   -302.91586018	     38.22979820	     62.00952459	    -50.61266306	    -41.94669680	     12.78222854	     63.29632280	     87.19679377
